<svg xmlns="http://www.w3.org/2000/svg" xmlns:xlink="http://www.w3.org/1999/xlink" width="1096" zoomAndPan="magnify" viewBox="203 221 1096 1058" height="1058" preserveAspectRatio="xMidYMid meet" version="1.0"><defs><clipPath id="ec8040b7d7"><path d="M 0.339844 0.257812 L 1094 0.257812 L 1094 1057.738281 L 0.339844 1057.738281 Z M 0.339844 0.257812 " clip-rule="nonzero"/></clipPath><clipPath id="04d630278b"><path d="M 75.339844 0.257812 L 1018.660156 0.257812 C 1038.550781 0.257812 1057.628906 8.160156 1071.695312 22.226562 C 1085.757812 36.292969 1093.660156 55.367188 1093.660156 75.257812 L 1093.660156 982.738281 C 1093.660156 1002.632812 1085.757812 1021.707031 1071.695312 1035.773438 C 1057.628906 1049.839844 1038.550781 1057.738281 1018.660156 1057.738281 L 75.339844 1057.738281 C 55.449219 1057.738281 36.371094 1049.839844 22.304688 1035.773438 C 8.242188 1021.707031 0.339844 1002.632812 0.339844 982.738281 L 0.339844 75.257812 C 0.339844 55.367188 8.242188 36.292969 22.304688 22.226562 C 36.371094 8.160156 55.449219 0.257812 75.339844 0.257812 Z M 75.339844 0.257812 " clip-rule="nonzero"/></clipPath><clipPath id="5eb434f5ee"><path d="M 0.339844 0.257812 L 1093.71875 0.257812 L 1093.71875 1057.738281 L 0.339844 1057.738281 Z M 0.339844 0.257812 " clip-rule="nonzero"/></clipPath><clipPath id="08c312d9be"><path d="M 75.339844 0.257812 L 1018.660156 0.257812 C 1038.550781 0.257812 1057.628906 8.160156 1071.695312 22.226562 C 1085.757812 36.292969 1093.660156 55.367188 1093.660156 75.257812 L 1093.660156 982.738281 C 1093.660156 1002.632812 1085.757812 1021.707031 1071.695312 1035.773438 C 1057.628906 1049.839844 1038.550781 1057.738281 1018.660156 1057.738281 L 75.339844 1057.738281 C 55.449219 1057.738281 36.371094 1049.839844 22.304688 1035.773438 C 8.242188 1021.707031 0.339844 1002.632812 0.339844 982.738281 L 0.339844 75.257812 C 0.339844 55.367188 8.242188 36.292969 22.304688 22.226562 C 36.371094 8.160156 55.449219 0.257812 75.339844 0.257812 Z M 75.339844 0.257812 " clip-rule="nonzero"/></clipPath><clipPath id="4897c6faf6"><rect x="0" width="1094" y="0" height="1058"/></clipPath><clipPath id="3b572d0d8d"><path d="M 157 160 L 936.285156 160 L 936.285156 939.140625 L 157 939.140625 Z M 157 160 " clip-rule="nonzero"/></clipPath><clipPath id="bb5ce01a18"><path d="M 569.960938 161.242188 L 598.925781 311.617188 C 606.421875 313.242188 613.835938 315.230469 621.148438 317.574219 L 721.414062 201.832031 C 735.113281 208.699219 748.394531 216.363281 761.191406 224.796875 L 711.089844 369.496094 C 716.765625 374.65625 722.195312 380.09375 727.359375 385.765625 L 872.0625 335.65625 C 880.492188 348.464844 888.164062 361.742188 895.027344 375.4375 L 779.285156 475.703125 C 781.621094 483.011719 783.609375 490.425781 785.242188 497.925781 L 935.609375 526.886719 C 936.511719 542.1875 936.511719 557.527344 935.609375 572.8125 L 785.242188 601.789062 C 783.609375 609.273438 781.621094 616.6875 779.285156 624 L 895.027344 724.261719 C 888.164062 737.96875 880.492188 751.25 872.0625 764.042969 L 727.359375 713.945312 C 722.195312 719.621094 716.765625 725.042969 711.089844 730.21875 L 761.191406 874.917969 C 748.394531 883.351562 735.113281 891.015625 721.414062 897.882812 L 621.148438 782.140625 C 613.835938 784.46875 606.421875 786.460938 598.925781 788.097656 L 569.960938 938.457031 C 554.667969 939.371094 539.328125 939.371094 524.03125 938.457031 L 495.066406 788.097656 C 487.570312 786.460938 480.15625 784.46875 472.847656 782.140625 L 372.582031 897.882812 C 358.875 891.015625 345.597656 883.351562 332.804688 874.917969 L 382.898438 730.21875 C 377.226562 725.042969 371.800781 719.621094 366.628906 713.945312 L 221.941406 764.042969 C 213.496094 751.25 205.832031 737.96875 198.964844 724.261719 L 314.703125 624 C 312.375 616.6875 310.386719 609.273438 308.75 601.789062 L 158.386719 572.8125 C 157.488281 557.527344 157.488281 542.1875 158.386719 526.886719 L 308.75 497.925781 C 310.386719 490.425781 312.375 483.011719 314.703125 475.703125 L 198.964844 375.4375 C 205.832031 361.742188 213.496094 348.464844 221.941406 335.65625 L 366.628906 385.765625 C 371.800781 380.09375 377.226562 374.65625 382.898438 369.496094 L 332.804688 224.796875 C 345.597656 216.363281 358.875 208.699219 372.582031 201.832031 L 472.847656 317.574219 C 480.15625 315.230469 487.570312 313.242188 495.066406 311.617188 L 524.03125 161.242188 C 539.328125 160.34375 554.667969 160.34375 569.960938 161.242188 Z M 546.996094 415.777344 C 472.992188 415.777344 412.910156 475.847656 412.910156 549.851562 C 412.910156 623.867188 472.992188 683.9375 546.996094 683.9375 C 621 683.9375 681.085938 623.867188 681.085938 549.851562 C 681.085938 475.847656 621 415.777344 546.996094 415.777344 Z M 546.996094 415.777344 " clip-rule="nonzero"/></clipPath><clipPath id="c0bf0165d3"><path d="M 0.480469 0.359375 L 779.285156 0.359375 L 779.285156 779.140625 L 0.480469 779.140625 Z M 0.480469 0.359375 " clip-rule="nonzero"/></clipPath><clipPath id="c896e90877"><path d="M 412.960938 1.242188 L 441.925781 151.617188 C 449.421875 153.242188 456.835938 155.230469 464.148438 157.574219 L 564.414062 41.832031 C 578.113281 48.699219 591.394531 56.363281 604.191406 64.796875 L 554.089844 209.496094 C 559.765625 214.65625 565.195312 220.09375 570.359375 225.765625 L 715.0625 175.65625 C 723.492188 188.464844 731.164062 201.742188 738.027344 215.4375 L 622.285156 315.703125 C 624.621094 323.011719 626.609375 330.425781 628.242188 337.925781 L 778.609375 366.886719 C 779.511719 382.1875 779.511719 397.527344 778.609375 412.8125 L 628.242188 441.789062 C 626.609375 449.273438 624.621094 456.6875 622.285156 464 L 738.027344 564.261719 C 731.164062 577.96875 723.492188 591.25 715.0625 604.042969 L 570.359375 553.945312 C 565.195312 559.621094 559.765625 565.042969 554.089844 570.21875 L 604.191406 714.917969 C 591.394531 723.351562 578.113281 731.015625 564.414062 737.882812 L 464.148438 622.140625 C 456.835938 624.46875 449.421875 626.460938 441.925781 628.097656 L 412.960938 778.457031 C 397.667969 779.371094 382.328125 779.371094 367.03125 778.457031 L 338.066406 628.097656 C 330.570312 626.460938 323.15625 624.46875 315.847656 622.140625 L 215.582031 737.882812 C 201.875 731.015625 188.597656 723.351562 175.804688 714.917969 L 225.898438 570.21875 C 220.226562 565.042969 214.800781 559.621094 209.628906 553.945312 L 64.941406 604.042969 C 56.496094 591.25 48.832031 577.96875 41.964844 564.261719 L 157.703125 464 C 155.375 456.6875 153.386719 449.273438 151.75 441.789062 L 1.386719 412.8125 C 0.488281 397.527344 0.488281 382.1875 1.386719 366.886719 L 151.75 337.925781 C 153.386719 330.425781 155.375 323.011719 157.703125 315.703125 L 41.964844 215.4375 C 48.832031 201.742188 56.496094 188.464844 64.941406 175.65625 L 209.628906 225.765625 C 214.800781 220.09375 220.226562 214.65625 225.898438 209.496094 L 175.804688 64.796875 C 188.597656 56.363281 201.875 48.699219 215.582031 41.832031 L 315.847656 157.574219 C 323.15625 155.230469 330.570312 153.242188 338.066406 151.617188 L 367.03125 1.242188 C 382.328125 0.34375 397.667969 0.34375 412.960938 1.242188 Z M 389.996094 255.777344 C 315.992188 255.777344 255.910156 315.847656 255.910156 389.851562 C 255.910156 463.867188 315.992188 523.9375 389.996094 523.9375 C 464 523.9375 524.085938 463.867188 524.085938 389.851562 C 524.085938 315.847656 464 255.777344 389.996094 255.777344 Z M 389.996094 255.777344 " clip-rule="nonzero"/></clipPath><clipPath id="a3a34154b5"><rect x="0" width="780" y="0" height="780"/></clipPath><clipPath id="dc1c0b7cb0"><path d="M 495.515625 35.492188 L 598.472656 35.492188 L 598.472656 313.394531 L 495.515625 313.394531 Z M 495.515625 35.492188 " clip-rule="nonzero"/></clipPath><clipPath id="2802e2d067"><path d="M 546.992188 35.632812 L 495.515625 313.394531 L 598.472656 313.394531 Z M 546.992188 35.632812 " clip-rule="nonzero"/></clipPath><clipPath id="51a2cf38dd"><path d="M 0.515625 0.558594 L 103.472656 0.558594 L 103.472656 278.394531 L 0.515625 278.394531 Z M 0.515625 0.558594 " clip-rule="nonzero"/></clipPath><clipPath id="8d428e3232"><path d="M 51.992188 0.632812 L 0.515625 278.394531 L 103.472656 278.394531 Z M 51.992188 0.632812 " clip-rule="nonzero"/></clipPath><clipPath id="66af98ef15"><rect x="0" width="104" y="0" height="279"/></clipPath><clipPath id="c8e6d9b129"><path d="M 291 727 L 474 727 L 474 995 L 291 995 Z M 291 727 " clip-rule="nonzero"/></clipPath><clipPath id="67b919cfe0"><path d="M 384.621094 727.875 L 473.925781 779.109375 L 335.636719 1020.160156 L 246.332031 968.925781 Z M 384.621094 727.875 " clip-rule="nonzero"/></clipPath><clipPath id="0ae2054a74"><path d="M 291.054688 994.417969 L 473.925781 779.109375 L 384.621094 727.875 Z M 291.054688 994.417969 " clip-rule="nonzero"/></clipPath><clipPath id="c02429cfd9"><path d="M 0 0.71875 L 183 0.71875 L 183 267.601562 L 0 267.601562 Z M 0 0.71875 " clip-rule="nonzero"/></clipPath><clipPath id="7dac8730c6"><path d="M 93.621094 0.875 L 182.925781 52.109375 L 44.636719 293.160156 L -44.667969 241.925781 Z M 93.621094 0.875 " clip-rule="nonzero"/></clipPath><clipPath id="a55ec8d92e"><path d="M 0.0546875 267.417969 L 182.925781 52.109375 L 93.621094 0.875 Z M 0.0546875 267.417969 " clip-rule="nonzero"/></clipPath><clipPath id="559ec575f4"><rect x="0" width="183" y="0" height="268"/></clipPath><clipPath id="ecdd24dbb6"><path d="M 621 730 L 806 730 L 806 997 L 621 997 Z M 621 730 " clip-rule="nonzero"/></clipPath><clipPath id="a0ff1faac4"><path d="M 621.679688 782.332031 L 710.648438 730.519531 L 850.507812 970.660156 L 761.542969 1022.476562 Z M 621.679688 782.332031 " clip-rule="nonzero"/></clipPath><clipPath id="7aae3c05b6"><path d="M 805.953125 996.445312 L 710.648438 730.519531 L 621.679688 782.332031 Z M 805.953125 996.445312 " clip-rule="nonzero"/></clipPath><clipPath id="5903f55d01"><path d="M 0.640625 0.359375 L 184.960938 0.359375 L 184.960938 266.519531 L 0.640625 266.519531 Z M 0.640625 0.359375 " clip-rule="nonzero"/></clipPath><clipPath id="f43c87cf75"><path d="M 0.679688 52.332031 L 89.648438 0.519531 L 229.507812 240.660156 L 140.542969 292.476562 Z M 0.679688 52.332031 " clip-rule="nonzero"/></clipPath><clipPath id="ef409b07fb"><path d="M 184.953125 266.445312 L 89.648438 0.519531 L 0.679688 52.332031 Z M 184.953125 266.445312 " clip-rule="nonzero"/></clipPath><clipPath id="f3f3d09868"><rect x="0" width="185" y="0" height="267"/></clipPath><clipPath id="e219987fee"><rect x="0" width="1096" y="0" height="1058"/></clipPath></defs><g transform="matrix(1, 0, 0, 1, 203, 221)"><g clip-path="url(#e219987fee)"><g clip-path="url(#ec8040b7d7)"><g clip-path="url(#04d630278b)"><g transform="matrix(1, 0, 0, 1, -0.000000000000028422, 0.000000000000113687)"><g clip-path="url(#4897c6faf6)"><g clip-path="url(#5eb434f5ee)"><g clip-path="url(#08c312d9be)"><path fill="#ff6b2b" d="M 0.339844 0.257812 L 1094.996094 0.257812 L 1094.996094 1057.738281 L 0.339844 1057.738281 Z M 0.339844 0.257812 " fill-opacity="1" fill-rule="nonzero"/></g></g></g></g></g></g><g clip-path="url(#3b572d0d8d)"><g clip-path="url(#bb5ce01a18)"><g transform="matrix(1, 0, 0, 1, 157, 160)"><g clip-path="url(#a3a34154b5)"><g clip-path="url(#c0bf0165d3)"><g clip-path="url(#c896e90877)"><path fill="#ffffff" d="M 0.714844 0.570312 L 779.285156 0.570312 L 779.285156 779.140625 L 0.714844 779.140625 Z M 0.714844 0.570312 " fill-opacity="1" fill-rule="nonzero"/></g></g></g></g></g></g><g clip-path="url(#dc1c0b7cb0)"><g clip-path="url(#2802e2d067)"><g transform="matrix(1, 0, 0, 1, 495, 35)"><g clip-path="url(#66af98ef15)"><g clip-path="url(#51a2cf38dd)"><g clip-path="url(#8d428e3232)"><path fill="#ffffff" d="M 103.472656 278.394531 L 0.515625 278.394531 L 0.515625 0.492188 L 103.472656 0.492188 Z M 103.472656 278.394531 " fill-opacity="1" fill-rule="nonzero"/></g></g></g></g></g></g><g clip-path="url(#c8e6d9b129)"><g clip-path="url(#67b919cfe0)"><g clip-path="url(#0ae2054a74)"><g transform="matrix(1, 0, 0, 1, 291, 727)"><g clip-path="url(#559ec575f4)"><g clip-path="url(#c02429cfd9)"><g clip-path="url(#7dac8730c6)"><g clip-path="url(#a55ec8d92e)"><path fill="#ffffff" d="M 93.621094 0.875 L 182.925781 52.109375 L 44.636719 293.160156 L -44.667969 241.925781 Z M 93.621094 0.875 " fill-opacity="1" fill-rule="nonzero"/></g></g></g></g></g></g></g></g><g clip-path="url(#ecdd24dbb6)"><g clip-path="url(#a0ff1faac4)"><g clip-path="url(#7aae3c05b6)"><g transform="matrix(1, 0, 0, 1, 621, 730)"><g clip-path="url(#f3f3d09868)"><g clip-path="url(#5903f55d01)"><g clip-path="url(#f43c87cf75)"><g clip-path="url(#ef409b07fb)"><path fill="#ffffff" d="M 0.679688 52.332031 L 89.648438 0.519531 L 229.507812 240.660156 L 140.542969 292.476562 Z M 0.679688 52.332031 " fill-opacity="1" fill-rule="nonzero"/></g></g></g></g></g></g></g></g></g></g></svg>