<svg xmlns="http://www.w3.org/2000/svg" xmlns:xlink="http://www.w3.org/1999/xlink" width="2000" zoomAndPan="magnify" viewBox="0 0 1500 1499.999933" height="2000" preserveAspectRatio="xMidYMid meet" version="1.0"><defs><g></g><clipPath id="be69235be4"><path d="M 428 0.320312 L 1361.078125 0.320312 L 1361.078125 615.679688 L 428 615.679688 Z M 428 0.320312 " clip-rule="nonzero"></path></clipPath><clipPath id="95f8325b74"><rect x="0" width="934" y="0" height="616"></rect></clipPath><clipPath id="7c16e8393a"><path d="M 0.660156 124.40625 L 400 124.40625 L 400 510.214844 L 0.660156 510.214844 Z M 0.660156 124.40625 " clip-rule="nonzero"></path></clipPath><clipPath id="40ca6066ab"><path d="M 75.660156 124.40625 L 324.546875 124.40625 C 344.4375 124.40625 363.515625 132.304688 377.582031 146.371094 C 391.644531 160.4375 399.546875 179.511719 399.546875 199.40625 L 399.546875 435.214844 C 399.546875 455.109375 391.644531 474.183594 377.582031 488.25 C 363.515625 502.316406 344.4375 510.214844 324.546875 510.214844 L 75.660156 510.214844 C 55.769531 510.214844 36.691406 502.316406 22.625 488.25 C 8.5625 474.183594 0.660156 455.109375 0.660156 435.214844 L 0.660156 199.40625 C 0.660156 179.511719 8.5625 160.4375 22.625 146.371094 C 36.691406 132.304688 55.769531 124.40625 75.660156 124.40625 Z M 75.660156 124.40625 " clip-rule="nonzero"></path></clipPath><clipPath id="6944d8c6bf"><path d="M 0.660156 0.40625 L 399.640625 0.40625 L 399.640625 386.214844 L 0.660156 386.214844 Z M 0.660156 0.40625 " clip-rule="nonzero"></path></clipPath><clipPath id="b30baa897c"><path d="M 75.660156 0.40625 L 324.546875 0.40625 C 344.4375 0.40625 363.515625 8.304688 377.582031 22.371094 C 391.644531 36.4375 399.546875 55.511719 399.546875 75.40625 L 399.546875 311.214844 C 399.546875 331.109375 391.644531 350.183594 377.582031 364.25 C 363.515625 378.316406 344.4375 386.214844 324.546875 386.214844 L 75.660156 386.214844 C 55.769531 386.214844 36.691406 378.316406 22.625 364.25 C 8.5625 350.183594 0.660156 331.109375 0.660156 311.214844 L 0.660156 75.40625 C 0.660156 55.511719 8.5625 36.4375 22.625 22.371094 C 36.691406 8.304688 55.769531 0.40625 75.660156 0.40625 Z M 75.660156 0.40625 " clip-rule="nonzero"></path></clipPath><clipPath id="ba6b54f036"><rect x="0" width="400" y="0" height="387"></rect></clipPath><clipPath id="37f9762437"><path d="M 58 182 L 342.132812 182 L 342.132812 466.945312 L 58 466.945312 Z M 58 182 " clip-rule="nonzero"></path></clipPath><clipPath id="fa0ecbbfdc"><path d="M 208.480469 183.136719 L 219.046875 238 C 221.785156 238.59375 224.488281 239.320312 227.15625 240.171875 L 263.738281 197.945312 C 268.734375 200.453125 273.582031 203.25 278.25 206.324219 L 259.972656 259.117188 C 262.042969 261 264.023438 262.984375 265.90625 265.054688 L 318.699219 246.769531 C 321.777344 251.445312 324.574219 256.289062 327.078125 261.285156 L 284.851562 297.867188 C 285.703125 300.53125 286.429688 303.238281 287.023438 305.972656 L 341.882812 316.539062 C 342.214844 322.121094 342.214844 327.71875 341.882812 333.296875 L 287.023438 343.867188 C 286.429688 346.597656 285.703125 349.304688 284.851562 351.96875 L 327.078125 388.550781 C 324.574219 393.550781 321.777344 398.394531 318.699219 403.0625 L 265.90625 384.785156 C 264.023438 386.855469 262.042969 388.835938 259.972656 390.722656 L 278.25 443.515625 C 273.582031 446.59375 268.734375 449.386719 263.738281 451.894531 L 227.15625 409.667969 C 224.488281 410.515625 221.785156 411.242188 219.046875 411.839844 L 208.480469 466.695312 C 202.902344 467.03125 197.304688 467.03125 191.722656 466.695312 L 181.15625 411.839844 C 178.421875 411.242188 175.714844 410.515625 173.050781 409.667969 L 136.46875 451.894531 C 131.46875 449.386719 126.625 446.59375 121.957031 443.515625 L 140.234375 390.722656 C 138.164062 388.835938 136.183594 386.855469 134.296875 384.785156 L 81.507812 403.0625 C 78.429688 398.394531 75.632812 393.550781 73.125 388.550781 L 115.351562 351.96875 C 114.503906 349.304688 113.777344 346.597656 113.179688 343.867188 L 58.324219 333.296875 C 57.996094 327.71875 57.996094 322.121094 58.324219 316.539062 L 113.179688 305.972656 C 113.777344 303.238281 114.503906 300.53125 115.351562 297.867188 L 73.125 261.285156 C 75.632812 256.289062 78.429688 251.445312 81.507812 246.769531 L 134.296875 265.054688 C 136.183594 262.984375 138.164062 261 140.234375 259.117188 L 121.957031 206.324219 C 126.625 203.25 131.46875 200.453125 136.46875 197.945312 L 173.050781 240.171875 C 175.714844 239.320312 178.421875 238.59375 181.15625 238 L 191.722656 183.136719 C 197.304688 182.808594 202.902344 182.808594 208.480469 183.136719 Z M 200.101562 276 C 173.101562 276 151.183594 297.917969 151.183594 324.917969 C 151.183594 351.921875 173.101562 373.839844 200.101562 373.839844 C 227.101562 373.839844 249.023438 351.921875 249.023438 324.917969 C 249.023438 297.917969 227.101562 276 200.101562 276 Z M 200.101562 276 " clip-rule="nonzero"></path></clipPath><clipPath id="6bd09635f9"><path d="M 0 0.71875 L 284.132812 0.71875 L 284.132812 284.945312 L 0 284.945312 Z M 0 0.71875 " clip-rule="nonzero"></path></clipPath><clipPath id="d92e1244bd"><path d="M 150.480469 1.136719 L 161.046875 56 C 163.785156 56.59375 166.488281 57.320312 169.15625 58.171875 L 205.738281 15.945312 C 210.734375 18.453125 215.582031 21.25 220.25 24.324219 L 201.972656 77.117188 C 204.042969 79 206.023438 80.984375 207.90625 83.054688 L 260.699219 64.769531 C 263.777344 69.445312 266.574219 74.289062 269.078125 79.285156 L 226.851562 115.867188 C 227.703125 118.53125 228.429688 121.238281 229.023438 123.972656 L 283.882812 134.539062 C 284.214844 140.121094 284.214844 145.71875 283.882812 151.296875 L 229.023438 161.867188 C 228.429688 164.597656 227.703125 167.304688 226.851562 169.96875 L 269.078125 206.550781 C 266.574219 211.550781 263.777344 216.394531 260.699219 221.0625 L 207.90625 202.785156 C 206.023438 204.855469 204.042969 206.835938 201.972656 208.722656 L 220.25 261.515625 C 215.582031 264.59375 210.734375 267.386719 205.738281 269.894531 L 169.15625 227.667969 C 166.488281 228.515625 163.785156 229.242188 161.046875 229.839844 L 150.480469 284.695312 C 144.902344 285.03125 139.304688 285.03125 133.722656 284.695312 L 123.15625 229.839844 C 120.421875 229.242188 117.714844 228.515625 115.050781 227.667969 L 78.46875 269.894531 C 73.46875 267.386719 68.625 264.59375 63.957031 261.515625 L 82.234375 208.722656 C 80.164062 206.835938 78.183594 204.855469 76.296875 202.785156 L 23.507812 221.0625 C 20.429688 216.394531 17.632812 211.550781 15.125 206.550781 L 57.351562 169.96875 C 56.503906 167.304688 55.777344 164.597656 55.179688 161.867188 L 0.324219 151.296875 C -0.00390625 145.71875 -0.00390625 140.121094 0.324219 134.539062 L 55.179688 123.972656 C 55.777344 121.238281 56.503906 118.53125 57.351562 115.867188 L 15.125 79.285156 C 17.632812 74.289062 20.429688 69.445312 23.507812 64.769531 L 76.296875 83.054688 C 78.183594 80.984375 80.164062 79 82.234375 77.117188 L 63.957031 24.324219 C 68.625 21.25 73.46875 18.453125 78.46875 15.945312 L 115.050781 58.171875 C 117.714844 57.320312 120.421875 56.59375 123.15625 56 L 133.722656 1.136719 C 139.304688 0.808594 144.902344 0.808594 150.480469 1.136719 Z M 142.101562 94 C 115.101562 94 93.183594 115.917969 93.183594 142.917969 C 93.183594 169.921875 115.101562 191.839844 142.101562 191.839844 C 169.101562 191.839844 191.023438 169.921875 191.023438 142.917969 C 191.023438 115.917969 169.101562 94 142.101562 94 Z M 142.101562 94 " clip-rule="nonzero"></path></clipPath><clipPath id="94a62861de"><rect x="0" width="285" y="0" height="285"></rect></clipPath><clipPath id="a84f1057d2"><path d="M 181.320312 137.257812 L 218.882812 137.257812 L 218.882812 238.648438 L 181.320312 238.648438 Z M 181.320312 137.257812 " clip-rule="nonzero"></path></clipPath><clipPath id="90f5106153"><path d="M 200.101562 137.3125 L 181.320312 238.648438 L 218.882812 238.648438 Z M 200.101562 137.3125 " clip-rule="nonzero"></path></clipPath><clipPath id="8f4e58afdc"><path d="M 0.320312 0.257812 L 37.882812 0.257812 L 37.882812 101.648438 L 0.320312 101.648438 Z M 0.320312 0.257812 " clip-rule="nonzero"></path></clipPath><clipPath id="8f41c203a3"><path d="M 19.101562 0.3125 L 0.320312 101.648438 L 37.882812 101.648438 Z M 19.101562 0.3125 " clip-rule="nonzero"></path></clipPath><clipPath id="7325332781"><rect x="0" width="38" y="0" height="102"></rect></clipPath><clipPath id="581ae99245"><path d="M 106 389 L 174 389 L 174 488 L 106 488 Z M 106 389 " clip-rule="nonzero"></path></clipPath><clipPath id="c88a69c34c"><path d="M 140.859375 389.867188 L 173.441406 408.5625 L 122.988281 496.507812 L 90.40625 477.8125 Z M 140.859375 389.867188 " clip-rule="nonzero"></path></clipPath><clipPath id="ee3c63c1e4"><path d="M 106.726562 487.113281 L 173.441406 408.5625 L 140.859375 389.867188 Z M 106.726562 487.113281 " clip-rule="nonzero"></path></clipPath><clipPath id="7ebfde31a8"><path d="M 0.601562 0.839844 L 67.558594 0.839844 L 67.558594 98.28125 L 0.601562 98.28125 Z M 0.601562 0.839844 " clip-rule="nonzero"></path></clipPath><clipPath id="43237fd8be"><path d="M 34.859375 0.867188 L 67.441406 19.5625 L 16.988281 107.507812 L -15.59375 88.8125 Z M 34.859375 0.867188 " clip-rule="nonzero"></path></clipPath><clipPath id="4ecdd0d489"><path d="M 0.726562 98.113281 L 67.441406 19.5625 L 34.859375 0.867188 Z M 0.726562 98.113281 " clip-rule="nonzero"></path></clipPath><clipPath id="6927aad28b"><rect x="0" width="68" y="0" height="99"></rect></clipPath><clipPath id="2a87c26ad2"><path d="M 227 390 L 295 390 L 295 488 L 227 488 Z M 227 390 " clip-rule="nonzero"></path></clipPath><clipPath id="431b730706"><path d="M 227.351562 409.738281 L 259.808594 390.832031 L 310.835938 478.445312 L 278.378906 497.351562 Z M 227.351562 409.738281 " clip-rule="nonzero"></path></clipPath><clipPath id="9b6af0978e"><path d="M 294.582031 487.855469 L 259.808594 390.832031 L 227.351562 409.738281 Z M 294.582031 487.855469 " clip-rule="nonzero"></path></clipPath><clipPath id="cb1ea12d4f"><path d="M 0.320312 0.800781 L 67.761719 0.800781 L 67.761719 98 L 0.320312 98 Z M 0.320312 0.800781 " clip-rule="nonzero"></path></clipPath><clipPath id="1d714b0d7e"><path d="M 0.351562 19.738281 L 32.808594 0.832031 L 83.835938 88.445312 L 51.378906 107.351562 Z M 0.351562 19.738281 " clip-rule="nonzero"></path></clipPath><clipPath id="ef0f0727b7"><path d="M 67.582031 97.855469 L 32.808594 0.832031 L 0.351562 19.738281 Z M 67.582031 97.855469 " clip-rule="nonzero"></path></clipPath><clipPath id="f44fb0b944"><rect x="0" width="68" y="0" height="98"></rect></clipPath><clipPath id="1cc861f720"><rect x="0" width="1362" y="0" height="616"></rect></clipPath></defs><g transform="matrix(1, 0, 0, 1, 65, 442)"><g clip-path="url(#1cc861f720)"><g clip-path="url(#be69235be4)"><g transform="matrix(1, 0, 0, 1, 428, 0.000000000000113687)"><g clip-path="url(#95f8325b74)"><g fill="#1e1e1e" fill-opacity="1"><g transform="translate(0.552198, 479.371588)"><g><path d="M 3.015625 -179.78125 L 3.015625 -228.375 L 23.65625 -228.375 L 23.65625 -242.140625 C 23.65625 -262.785156 25.160156 -278.769531 28.171875 -290.09375 C 31.179688 -301.425781 36.628906 -309.671875 44.515625 -314.828125 C 52.398438 -319.992188 63.941406 -322.578125 79.140625 -322.578125 C 92.898438 -322.578125 106.375 -319.851562 119.5625 -314.40625 L 119.5625 -270.53125 C 111.25 -273.113281 104.367188 -274.40625 98.921875 -274.40625 C 93.472656 -274.40625 89.53125 -273.6875 87.09375 -272.25 C 84.65625 -270.8125 83.003906 -268.226562 82.140625 -264.5 C 81.285156 -260.78125 80.859375 -254.757812 80.859375 -246.4375 L 80.859375 -228.375 L 116.984375 -228.375 L 116.984375 -179.78125 L 80.859375 -179.78125 L 80.859375 0 L 23.65625 0 L 23.65625 -179.78125 Z M 3.015625 -179.78125 "></path></g></g></g><g fill="#1e1e1e" fill-opacity="1"><g transform="translate(99.469989, 479.371588)"><g><path d="M 57.625 -248.171875 C 50.75 -248.171875 44.515625 -249.960938 38.921875 -253.546875 C 33.328125 -257.128906 28.953125 -262 25.796875 -268.15625 C 22.648438 -274.320312 21.078125 -280.847656 21.078125 -287.734375 C 21.078125 -294.035156 22.722656 -299.910156 26.015625 -305.359375 C 29.316406 -310.804688 33.757812 -315.035156 39.34375 -318.046875 C 44.9375 -321.066406 51.03125 -322.578125 57.625 -322.578125 C 64.507812 -322.578125 70.675781 -320.851562 76.125 -317.40625 C 81.570312 -313.96875 85.941406 -309.378906 89.234375 -303.640625 C 92.535156 -297.910156 94.1875 -291.601562 94.1875 -284.71875 C 94.1875 -278.125 92.535156 -272.03125 89.234375 -266.4375 C 85.941406 -260.851562 81.5 -256.410156 75.90625 -253.109375 C 70.320312 -249.816406 64.226562 -248.171875 57.625 -248.171875 Z M 29.25 -228.375 L 86.453125 -228.375 L 86.453125 0 L 29.25 0 Z M 29.25 -228.375 "></path></g></g></g><g fill="#1e1e1e" fill-opacity="1"><g transform="translate(193.226768, 479.371588)"><g><path d="M 75.265625 -228.375 L 120 -161.71875 L 165.15625 -228.375 L 231.390625 -228.375 L 153.109375 -120.421875 L 240.859375 0 L 174.625 0 L 120 -79.140625 L 66.234375 0 L 0.4375 0 L 86.875 -120.421875 L 8.609375 -228.375 Z M 75.265625 -228.375 "></path></g></g></g><g fill="#1e1e1e" fill-opacity="1"><g transform="translate(412.56771, 479.371588)"><g><path d="M 35.703125 -178.921875 L 6.453125 -178.921875 L 6.453125 -228.375 L 35.703125 -228.375 L 35.703125 -312.671875 L 92.90625 -312.671875 L 92.90625 -228.375 L 126.875 -228.375 L 126.875 -178.921875 L 92.90625 -178.921875 L 92.90625 0 L 35.703125 0 Z M 35.703125 -178.921875 "></path></g></g></g><g fill="#1e1e1e" fill-opacity="1"><g transform="translate(520.087138, 479.371588)"><g><path d="M 136.765625 6.015625 C 112.972656 6.015625 92.039062 0.710938 73.96875 -9.890625 C 55.90625 -20.503906 41.925781 -34.984375 32.03125 -53.328125 C 22.144531 -71.679688 17.203125 -92.039062 17.203125 -114.40625 C 17.203125 -135.332031 22.078125 -154.972656 31.828125 -173.328125 C 41.578125 -191.679688 55.410156 -206.445312 73.328125 -217.625 C 91.253906 -228.8125 112.113281 -234.40625 135.90625 -234.40625 C 159.707031 -234.40625 180.78125 -229.097656 199.125 -218.484375 C 217.476562 -207.878906 231.742188 -193.1875 241.921875 -174.40625 C 252.109375 -155.625 257.203125 -134.332031 257.203125 -110.53125 C 257.203125 -105.375 257.054688 -101.070312 256.765625 -97.625 L 72.6875 -97.625 C 75.550781 -81 82.789062 -68.023438 94.40625 -58.703125 C 106.019531 -49.390625 120.140625 -44.734375 136.765625 -44.734375 C 149.671875 -44.734375 160.925781 -46.738281 170.53125 -50.75 C 180.132812 -54.757812 190.097656 -61.210938 200.421875 -70.109375 L 241.28125 -36.125 C 215.1875 -8.03125 180.347656 6.015625 136.765625 6.015625 Z M 199.5625 -142.796875 C 195.832031 -155.984375 188.304688 -166.445312 176.984375 -174.1875 C 165.660156 -181.925781 152.253906 -185.796875 136.765625 -185.796875 C 122.429688 -185.796875 109.957031 -182.210938 99.34375 -175.046875 C 88.738281 -167.878906 80.710938 -157.128906 75.265625 -142.796875 Z M 199.5625 -142.796875 "></path></g></g></g><g fill="#1e1e1e" fill-opacity="1"><g transform="translate(772.544469, 479.371588)"><g><path d="M 78.28125 -228.375 L 78.28125 -199.5625 C 83.4375 -211.03125 90.316406 -219.703125 98.921875 -225.578125 C 107.523438 -231.460938 116.703125 -234.40625 126.453125 -234.40625 C 135.617188 -234.40625 143.929688 -232.394531 151.390625 -228.375 L 133.765625 -179.34375 C 127.453125 -182.5 121.859375 -184.078125 116.984375 -184.078125 C 107.523438 -184.078125 100 -178.628906 94.40625 -167.734375 C 88.8125 -156.835938 86.015625 -140.492188 86.015625 -118.703125 L 86.015625 0 L 28.8125 0 L 28.8125 -228.375 Z M 78.28125 -228.375 "></path></g></g></g></g></g></g><g clip-path="url(#7c16e8393a)"><g clip-path="url(#40ca6066ab)"><g transform="matrix(1, 0, 0, 1, 0, 124)"><g clip-path="url(#ba6b54f036)"><g clip-path="url(#6944d8c6bf)"><g clip-path="url(#b30baa897c)"><path fill="#ff6b2b" d="M 0.660156 0.40625 L 400.035156 0.40625 L 400.035156 386.214844 L 0.660156 386.214844 Z M 0.660156 0.40625 " fill-opacity="1" fill-rule="nonzero"></path></g></g></g></g></g></g><g clip-path="url(#37f9762437)"><g clip-path="url(#fa0ecbbfdc)"><g transform="matrix(1, 0, 0, 1, 58, 182)"><g clip-path="url(#94a62861de)"><g clip-path="url(#6bd09635f9)"><g clip-path="url(#d92e1244bd)"><path fill="#ffffff" d="M 0.078125 0.890625 L 284.132812 0.890625 L 284.132812 284.945312 L 0.078125 284.945312 Z M 0.078125 0.890625 " fill-opacity="1" fill-rule="nonzero"></path></g></g></g></g></g></g><g clip-path="url(#a84f1057d2)"><g clip-path="url(#90f5106153)"><g transform="matrix(1, 0, 0, 1, 181, 137)"><g clip-path="url(#7325332781)"><g clip-path="url(#8f4e58afdc)"><g clip-path="url(#8f41c203a3)"><path fill="#ffffff" d="M 37.882812 101.648438 L 0.320312 101.648438 L 0.320312 0.257812 L 37.882812 0.257812 Z M 37.882812 101.648438 " fill-opacity="1" fill-rule="nonzero"></path></g></g></g></g></g></g><g clip-path="url(#581ae99245)"><g clip-path="url(#c88a69c34c)"><g clip-path="url(#ee3c63c1e4)"><g transform="matrix(1, 0, 0, 1, 106, 389)"><g clip-path="url(#6927aad28b)"><g clip-path="url(#7ebfde31a8)"><g clip-path="url(#43237fd8be)"><g clip-path="url(#4ecdd0d489)"><path fill="#ffffff" d="M 34.859375 0.867188 L 67.441406 19.5625 L 16.988281 107.507812 L -15.59375 88.8125 Z M 34.859375 0.867188 " fill-opacity="1" fill-rule="nonzero"></path></g></g></g></g></g></g></g></g><g clip-path="url(#2a87c26ad2)"><g clip-path="url(#431b730706)"><g clip-path="url(#9b6af0978e)"><g transform="matrix(1, 0, 0, 1, 227, 390)"><g clip-path="url(#f44fb0b944)"><g clip-path="url(#cb1ea12d4f)"><g clip-path="url(#1d714b0d7e)"><g clip-path="url(#ef0f0727b7)"><path fill="#ffffff" d="M 0.351562 19.738281 L 32.808594 0.832031 L 83.835938 88.445312 L 51.378906 107.351562 Z M 0.351562 19.738281 " fill-opacity="1" fill-rule="nonzero"></path></g></g></g></g></g></g></g></g></g></g></svg>